<svg width="75" height="58" viewBox="0 0 75 58" fill="none" xmlns="http://www.w3.org/2000/svg">
<path d="M75 30C75 22.0436 71.8392 14.4129 66.2131 8.78679C60.587 3.16071 52.9564 1.04337e-06 45 0C37.0435 -1.04337e-06 29.4129 3.16071 23.7868 8.78679C18.1607 14.4129 15 22.0436 15 30H24.3751C27.4817 30 29.9045 27.3966 31.0424 24.5058C31.7895 22.6079 32.9232 20.8637 34.3933 19.3933C37.2064 16.5803 41.0218 15 45 15C48.9782 15 52.7936 16.5803 55.6067 19.3933C58.4197 22.2064 59.9999 26.0218 59.9999 30H75Z" fill="url(#paint0_linear_17_3)"/>
<path d="M57.9546 41.4805C59.4416 37.8407 60.2071 33.9396 60.2071 30H75C75 46.5686 61.7524 60 45.4109 60C42.8517 60 40.3682 59.6707 38 59.0514C39.34 58.7014 40.657 58.2556 41.9411 57.7164C45.531 56.2088 48.7929 53.9991 51.5405 51.2133C54.2882 48.4275 56.4678 45.1203 57.9546 41.4805Z" fill="#D43D38"/>
<path d="M0 30C-5.63602e-07 33.9397 0.775971 37.8408 2.28361 41.4806C3.79125 45.1204 6.00103 48.4275 8.78679 51.2133C11.5725 53.9989 14.8797 56.2088 18.5195 57.7165C22.1592 59.2241 26.0603 60 30 60C33.9395 60 37.8406 59.2241 41.4804 57.7165C45.1202 56.2088 48.4274 53.9989 51.2131 51.2133C53.9989 48.4275 56.2086 45.1204 57.7163 41.4806C59.2239 37.8408 60 33.9397 60 30H50.6248C47.5182 30 45.0954 32.6034 43.9575 35.494C43.9252 35.5764 43.892 35.6584 43.8581 35.7404C43.1043 37.5602 41.9995 39.2139 40.6065 40.6067C39.2137 41.9995 37.56 43.1045 35.7402 43.8583C33.9204 44.6122 31.9699 45.0001 30 45.0001C28.0301 45.0001 26.0796 44.6122 24.2598 43.8583C22.4398 43.1045 20.7863 41.9995 19.3933 40.6067C18.0005 39.2139 16.8956 37.5602 16.1418 35.7404C15.388 33.9204 15 31.9699 15 30H0Z" fill="url(#paint1_linear_17_3)"/>
<path d="M0 30C0 13.4314 13.6061 0 30.3901 0C33.0179 0 35.5678 0.329239 38 0.948235C32.7813 2.27537 27.9671 4.96113 24.0915 8.78681C18.3923 14.4128 15.1905 22.0436 15.1905 30H0Z" fill="#2A65B0"/>
<defs>
<linearGradient id="paint0_linear_17_3" x1="75" y1="15" x2="15" y2="15" gradientUnits="userSpaceOnUse">
<stop stop-color="#394F87"/>
<stop offset="1" stop-color="#061C53"/>
</linearGradient>
<linearGradient id="paint1_linear_17_3" x1="1.96701e-06" y1="45.0001" x2="60" y2="45.0001" gradientUnits="userSpaceOnUse">
<stop stop-color="#D43D38"/>
<stop offset="1" stop-color="#991E15"/>
</linearGradient>
</defs>
</svg>
